<?xml version="1.0" encoding="UTF-8" standalone="no"?>
<svg
   xmlns:dc="http://purl.org/dc/elements/1.1/"
   xmlns:cc="http://creativecommons.org/ns#"
   xmlns:rdf="http://www.w3.org/1999/02/22-rdf-syntax-ns#"
   xmlns:svg="http://www.w3.org/2000/svg"
   xmlns="http://www.w3.org/2000/svg"
   xmlns:sodipodi="http://sodipodi.sourceforge.net/DTD/sodipodi-0.dtd"
   xmlns:inkscape="http://www.inkscape.org/namespaces/inkscape"
   version="1.0"
   width="1280.000000pt"
   height="1225.000000pt"
   viewBox="0 0 1280.000000 1225.000000"
   preserveAspectRatio="xMidYMid meet"
   id="svg2"
   inkscape:version="0.91 r13725"
   sodipodi:docname="shopping_cart.svg">
  <defs
     id="defs16" />
  <sodipodi:namedview
     pagecolor="#ffffff"
     bordercolor="#666666"
     borderopacity="1"
     objecttolerance="10"
     gridtolerance="10"
     guidetolerance="10"
     inkscape:pageopacity="0"
     inkscape:pageshadow="2"
     inkscape:window-width="751"
     inkscape:window-height="480"
     id="namedview14"
     showgrid="false"
     inkscape:zoom="0.15412245"
     inkscape:cx="800"
     inkscape:cy="765.625"
     inkscape:window-x="65"
     inkscape:window-y="144"
     inkscape:window-maximized="0"
     inkscape:current-layer="svg2" />
  <metadata
     id="metadata4">
Created by potrace 1.15, written by Peter Selinger 2001-2017
<rdf:RDF>
  <cc:Work
     rdf:about="">
    <dc:format>image/svg+xml</dc:format>
    <dc:type
       rdf:resource="http://purl.org/dc/dcmitype/StillImage" />
  </cc:Work>
</rdf:RDF>
</metadata>
  <g
     transform="matrix(-0.1,0,0,-0.1,1279.6795,1225)"
     id="g6"
     style="fill:#000000;stroke:none">
    <path
       d="m 11390,12078 c -547,-94 -1018,-179 -1047,-190 -28,-10 -70,-34 -93,-52 -79,-62 -78,-61 -298,-626 -126,-321 -257,-659 -332,-850 -38,-96 -114,-292 -170,-435 -55,-143 -129,-330 -162,-416 l -61,-156 -286,-7 c -525,-12 -2661,-65 -3071,-76 -223,-6 -945,-24 -1605,-40 -660,-16 -1384,-34 -1610,-40 -225,-6 -847,-22 -1381,-35 C 241,9129 258,9130 175,9080 88,9026 13,8908 3,8808 0,8774 30,8491 89,8010 139,7600 238,6779 310,6185 513,4506 495,4639 526,4570 c 17,-37 45,-77 78,-108 58,-55 91,-74 151,-91 23,-6 410,-40 860,-76 451,-36 1131,-90 1510,-120 380,-30 1111,-88 1625,-129 514,-41 1265,-101 1668,-133 l 733,-58 647,-508 c 356,-279 676,-538 712,-575 100,-103 170,-255 170,-368 0,-23 -9,-71 -20,-107 -24,-79 -78,-133 -166,-168 l -59,-23 -945,-8 c -520,-4 -2297,-12 -3950,-16 l -3005,-8 -58,-23 c -81,-32 -166,-113 -203,-193 -24,-53 -28,-75 -28,-143 1,-49 7,-97 18,-124 22,-59 79,-133 132,-171 87,-62 100,-64 441,-70 l 313,-5 -54,-42 C 982,1215 883,1065 842,917 830,872 825,819 826,725 c 1,-149 21,-229 89,-352 51,-90 188,-227 278,-278 369,-204 833,-59 1017,320 22,44 47,112 56,150 22,92 22,249 0,340 -38,152 -142,313 -262,406 l -57,44 1804,6 c 992,3 2389,7 3103,8 l 1300,1 -45,-28 C 7897,1206 7767,947 7783,690 7803,360 8045,83 8372,16 c 162,-33 304,-14 467,66 91,43 116,62 191,137 70,70 94,103 133,181 64,128 81,200 81,335 0,131 -17,206 -73,320 -48,97 -116,183 -196,248 -67,53 -197,123 -251,133 -50,9 -50,19 1,38 191,74 394,242 521,434 68,101 131,242 144,322 16,92 16,272 1,360 -19,103 -67,248 -113,340 -129,255 -245,370 -850,844 -252,197 -458,363 -458,368 0,5 72,195 161,421 89,227 196,502 239,612 43,110 160,409 260,665 100,256 218,557 262,670 99,255 317,811 648,1660 38,96 150,384 250,640 194,497 220,562 500,1280 182,466 298,763 392,1005 28,72 52,131 53,133 2,2 409,72 905,157 999,170 967,162 1054,255 73,78 100,147 100,250 0,96 -25,166 -82,231 -68,78 -180,130 -276,128 -28,0 -499,-77 -1046,-171 z M 8918,8688 c -22,-57 -71,-182 -108,-278 -38,-96 -118,-303 -180,-460 -61,-157 -125,-321 -142,-365 -17,-44 -35,-86 -41,-93 -7,-9 -82,-12 -336,-10 l -326,3 0,640 0,640 400,11 c 220,6 484,11 587,12 l 186,2 -40,-102 z m -1390,-565 -3,-638 -612,-3 -613,-2 0,624 0,624 308,7 c 169,4 415,11 547,15 132,4 270,7 308,8 l 67,2 -2,-637 z m -1485,-20 -3,-618 -612,0 -613,0 -3,603 -2,602 42,1 c 24,1 239,7 478,13 239,7 498,14 575,14 l 140,2 -2,-617 z m -1483,-23 0,-600 -612,2 -613,3 -3,583 c -1,320 -1,583 0,583 7,3 873,26 1041,27 l 187,2 0,-600 z m -1485,-15 0,-580 -612,-2 -613,-3 0,569 0,568 323,8 c 177,4 435,11 572,15 138,4 268,7 290,6 l 40,-1 0,-580 z m -1485,-20 0,-565 -444,0 c -284,0 -447,4 -451,10 -5,9 -135,1050 -135,1085 0,10 35,14 168,15 92,2 275,6 407,9 132,4 288,8 348,9 l 107,2 0,-565 z m 0,-1390 0,-575 -364,0 -365,0 -6,43 c -3,23 -32,267 -65,542 -33,275 -62,515 -65,533 l -6,32 436,0 435,0 0,-575 z m 1490,0 0,-575 -615,0 -615,0 0,575 0,575 615,0 615,0 0,-575 z m 1480,0 0,-575 -615,0 -615,0 0,575 0,575 615,0 615,0 0,-575 z m 1483,3 -3,-573 -612,0 -613,0 -3,573 -2,572 617,0 618,0 -2,-572 z m 1487,-3 0,-575 -615,0 -615,0 0,575 0,575 615,0 615,0 0,-575 z m 800,523 c -11,-29 -112,-287 -224,-573 l -203,-520 -61,-3 -62,-3 0,576 0,575 285,0 285,0 -20,-52 z m -6740,-1761 0,-413 -147,12 c -82,6 -218,17 -303,24 l -156,12 -43,362 c -24,198 -45,373 -48,389 l -5,27 351,0 351,0 0,-413 z m 1490,-57 0,-470 -29,0 c -15,0 -281,20 -590,45 -309,25 -573,45 -586,45 l -25,0 0,425 0,425 615,0 615,0 0,-470 z m 1480,-60 c 0,-291 -3,-530 -7,-530 -23,-1 -1200,92 -1210,96 -10,3 -13,108 -13,484 l 0,480 615,0 615,0 0,-530 z m 1480,-61 0,-592 -57,6 c -32,4 -294,25 -583,47 -289,23 -540,43 -557,46 l -33,5 0,533 c 0,293 3,536 7,539 3,4 280,7 615,7 l 608,0 0,-591 z m 1490,243 0,-349 -86,-219 c -47,-120 -100,-256 -117,-302 -24,-63 -35,-81 -47,-76 -39,16 -122,26 -485,54 -214,17 -414,33 -442,36 l -53,6 0,599 0,599 615,0 615,0 0,-348 z m 270,341 c 0,-5 -5,-15 -10,-23 -8,-12 -10,-11 -10,8 0,12 5,22 10,22 6,0 10,-3 10,-7 z M 1685,1144 c 109,-34 205,-120 258,-232 30,-63 32,-74 32,-182 0,-111 -1,-118 -34,-182 -40,-81 -128,-169 -203,-203 -163,-75 -366,-39 -491,87 -131,131 -160,318 -78,494 87,186 310,280 516,218 z m 6960,-1 c 152,-46 272,-187 294,-345 48,-345 -297,-596 -616,-448 -163,75 -264,270 -235,448 44,263 302,423 557,345 z"
       id="path8"
       inkscape:connector-curvature="0" />
    <path
       d="m 1455,936 c -60,-28 -87,-56 -114,-116 -61,-135 19,-289 168,-321 157,-33 305,115 272,272 -33,151 -189,230 -326,165 z"
       id="path10"
       inkscape:connector-curvature="0" />
    <path
       d="m 8412,935 c -201,-102 -163,-388 57,-436 127,-27 256,66 277,199 9,58 -18,141 -61,185 -49,51 -89,69 -160,74 -51,4 -68,0 -113,-22 z"
       id="path12"
       inkscape:connector-curvature="0" />
  </g>
</svg>
